<svg width="1500" height="1500" viewBox="0 0 1500 1500" fill="none" xmlns="http://www.w3.org/2000/svg">
<path d="M482.843 702.762C489.807 716.953 492.622 734.812 489.525 753.306C486.431 771.814 477.434 790.983 466.549 808.675C458.702 821.436 449.863 833.424 440.762 845.205C417.364 871.46 404.063 907.062 405.859 946.145C411.434 1023.77 476.575 1088.97 554.21 1094.6C634.725 1098.26 700.827 1037.46 700.234 956.21C699.963 912.103 680.702 871.803 650.337 843.226C640.781 833.394 631.392 823.152 622.736 811.166C601.814 782.193 583.76 743.086 602.358 708.526C614.514 685.927 687.493 623.695 713.024 612.586C764.487 590.2 808.524 614.403 844.096 651.271C872.557 680.791 912.241 699.457 955.627 699.754C1036.94 700.704 1097.86 634.722 1094.15 553.851C1088.57 476.224 1023.42 411.03 945.79 405.394C853.717 401.208 850.875 457.671 784.416 485.301C727.203 509.1 660.977 462.228 629.924 417.498C594.807 366.898 628.638 320.373 663.303 283.329C688.857 261.981 705.093 234.279 705.896 205.61C707.763 154.308 652.497 120.681 584.372 126.519C518.244 135.389 457.141 179.898 445.452 229.646C440.06 257.42 449.359 282.073 469.094 299.203C500.595 331.23 521.814 359.711 493.883 405.03C476.172 433.782 427.319 493.341 392.749 504.083C339.88 520.5 325.892 490.792 293.182 462.454C276.55 447.111 254.422 440.298 229.943 444.841C180.181 456.459 135.589 517.491 126.621 583.606C120.692 651.721 154.24 707.026 205.552 705.234C232.619 704.511 258.838 690.042 279.661 666.993C306.01 643.135 318.278 610.191 357.374 605.82C412.295 599.685 460.995 658.282 482.843 702.762Z" fill="url(#paint0_linear_1809_10507)"/>
<path d="M392.339 63.8094C434.692 46.8082 459.19 47.5998 444.134 67.8702C428.372 93.4522 373.653 131.271 325.293 149.299C282.189 168.399 267.103 160.58 287.678 134.723C308.109 112.903 353.702 82.0092 392.339 63.8094ZM278.167 1141.05C319.364 1163.22 357.044 1205.8 369.985 1247.54L370.078 1247.85C370.866 1250.36 371.57 1252.88 372.182 1255.38C372.974 1258.14 373.62 1260.8 374.124 1263.39C379.413 1289.5 370.018 1306.53 351.35 1312.31L351.014 1312.41C338.798 1316.16 322.633 1315.1 303.944 1308.57C258.644 1289.36 210.164 1240.9 191.38 1196.16C173.731 1145.89 195.741 1113.87 244.475 1127.86C254.945 1130.33 265.552 1134.45 275.955 1139.89L276.104 1139.96L278.167 1141.05ZM584.112 1373.22C517.994 1364.23 457.535 1319.92 445.876 1270.17C434.916 1213.52 485.02 1169.93 560.09 1176.56C638.164 1181.03 704.207 1235.69 705.762 1294.31C707.547 1345.62 652.854 1379.26 584.112 1373.22ZM946.319 1094.72C865.446 1098.45 799.446 1037.54 800.378 956.238C800.946 871.508 871.538 801.019 956.278 800.569C1037.58 799.745 1098.41 865.831 1094.76 946.347C1089.13 1023.98 1023.62 1089.4 946.319 1094.72ZM915.632 1373.47C847.502 1379.32 792.24 1345.69 794.105 1294.38C795.748 1235.77 861.88 1181.2 940.38 1176.67C1015.46 1170.09 1065.54 1213.71 1054.55 1270.35C1042.86 1320.1 981.755 1364.6 915.632 1373.47ZM1255.53 372.135C1245.06 369.672 1234.45 365.554 1224.04 360.113L1223.91 360.038L1221.84 358.939C1180.64 336.775 1142.95 294.198 1130.02 252.451L1129.93 252.143C1129.14 249.631 1128.44 247.117 1127.83 244.613C1127.03 241.853 1126.39 239.195 1125.88 236.607C1120.6 210.493 1129.99 193.466 1148.66 187.685L1149 187.584C1161.21 183.835 1177.37 184.894 1196.07 191.425C1241.37 210.631 1289.85 259.086 1308.63 303.824C1326.28 354.098 1304.26 386.132 1255.53 372.135ZM1294.45 705.783C1235.83 704.215 1181.17 638.163 1176.72 560.095C1169.84 484.611 1213.72 434.933 1270.06 445.384C1319.82 457.003 1364.41 518.044 1373.37 584.155C1379.31 652.265 1345.76 707.577 1294.45 705.783ZM1270.06 1055.16C1213.72 1065.61 1169.84 1015.93 1176.72 940.451C1181.17 862.379 1235.83 796.327 1294.45 794.76C1345.76 792.97 1379.31 848.277 1373.37 916.39C1364.41 982.505 1319.82 1043.54 1270.06 1055.16ZM1196.06 1309.11C1145.76 1326.68 1113.75 1304.64 1127.82 1255.93C1141.34 1200.35 1200.33 1141.4 1255.53 1128.41C1304.26 1114.41 1326.27 1146.44 1308.62 1196.71C1289.84 1241.45 1241.36 1289.9 1196.06 1309.11ZM1431.84 443.842C1406.56 428.779 1368.33 373.46 1350.66 325.724C1331.08 282.045 1338.88 266.956 1365.23 288.105C1387.06 308.521 1417.58 353.431 1436.19 392.73C1452.89 434.371 1452.42 459.572 1431.84 443.842ZM1475.34 714.295C1450.4 712.725 1422.92 657.841 1416.84 593.113C1407.75 530.536 1423.03 492.023 1448.23 504.532C1468.34 517.454 1489.9 568.061 1498.36 619.886C1504.06 673.442 1494.59 716.319 1475.34 714.295ZM1448.23 996.013C1423.03 1008.52 1407.75 970.005 1416.84 907.432C1422.92 842.706 1450.4 787.826 1475.34 786.249C1494.59 784.223 1504.06 827.099 1498.36 880.657C1489.9 932.482 1468.34 983.081 1448.23 996.013ZM1365.23 1212.44C1338.88 1233.59 1331.08 1218.5 1350.66 1174.82C1368.33 1127.09 1406.56 1071.76 1431.84 1056.7C1452.42 1040.97 1452.89 1066.17 1436.19 1107.81C1417.58 1147.11 1387.06 1192.02 1365.23 1212.44ZM392.662 1435.98C354.04 1417.75 308.458 1386.84 288.04 1365C267.488 1339.13 281.989 1330.85 325.674 1350.45C374.015 1368.5 428.72 1406.36 444.457 1431.95C459.511 1452.23 435.014 1453.01 392.662 1435.98ZM619.817 1498.19C567.991 1489.72 517.393 1468.14 504.469 1448.04C491.964 1422.84 530.486 1407.57 593.06 1416.67C657.787 1422.77 712.667 1450.26 714.965 1475.23C716.262 1494.44 674.133 1503.98 619.817 1498.19ZM879.722 1498.4C826.151 1504.02 783.291 1494.49 785.347 1475.25C786.947 1450.31 842.549 1422.82 907.275 1416.77C969.857 1407.7 1007.7 1423.24 995.149 1448.43C982.918 1468.28 932.305 1489.82 879.722 1498.4ZM1107.66 1436.19C1065.31 1453.19 1040.81 1452.39 1055.87 1432.12C1071.63 1406.55 1126.35 1368.73 1174.71 1350.7C1217.81 1331.6 1232.89 1339.42 1212.32 1365.27C1191.9 1387.1 1146.3 1417.99 1107.66 1436.19ZM915.896 126.783C982.007 135.767 1042.47 180.077 1054.13 229.828C1065.08 286.472 1014.98 330.073 939.909 323.435C861.835 318.971 795.796 264.308 794.237 205.684C792.456 154.374 847.147 120.743 915.896 126.783ZM205.551 794.217C264.172 795.787 318.83 861.839 323.282 939.907C330.161 1015.39 286.281 1065.07 229.944 1054.61C180.181 1042.99 135.589 981.958 126.622 915.847C120.692 847.732 154.239 792.421 205.551 794.217ZM303.942 190.889C354.242 173.311 386.248 195.361 372.182 244.07C358.655 299.642 299.679 358.601 244.473 371.592C195.739 385.589 173.729 353.556 191.378 303.292C210.162 258.552 258.642 210.091 303.942 190.889ZM68.1665 1056.16C93.4406 1071.22 131.661 1126.54 149.34 1174.27C168.916 1217.96 161.123 1233.04 134.771 1211.89C112.936 1191.48 82.4268 1146.57 63.8106 1107.27C47.1099 1065.63 47.5787 1040.43 68.1665 1056.16ZM24.6608 785.705C49.6044 787.275 77.0798 842.159 83.157 906.889C92.242 969.458 76.977 1007.98 51.7701 995.47C31.664 982.541 10.1034 931.939 1.64387 880.112C-4.0562 826.556 5.41535 783.678 24.6608 785.705ZM51.7701 503.985C76.977 491.479 92.242 529.996 83.157 592.566C77.0798 657.294 49.6044 712.176 24.6608 713.748C5.41535 715.776 -4.0562 672.895 1.64387 619.343C10.1034 567.516 31.664 516.914 51.7701 503.985ZM134.771 287.562C161.123 266.412 168.916 281.498 149.34 325.181C131.661 372.912 93.4406 428.236 68.1665 443.295C47.5787 459.027 47.1099 433.827 63.8106 392.189C82.4268 352.888 112.936 307.974 134.771 287.562ZM1107.34 64.0205C1145.96 82.2483 1191.54 113.163 1211.96 134.999C1232.51 160.863 1218.01 169.142 1174.33 149.553C1125.98 131.491 1071.28 93.639 1055.54 68.0513C1040.49 47.7679 1064.99 46.9894 1107.34 64.0205ZM880.181 1.81093C932.008 10.2761 982.616 31.8569 995.53 51.9555C1008.04 77.1605 969.517 92.4235 906.939 83.3198C842.213 77.2277 787.329 49.7432 785.038 24.7717C783.739 5.55054 825.867 -3.98061 880.181 1.81093ZM620.276 1.60182C673.849 -4.01981 716.712 5.5 714.657 24.7528C713.057 49.6833 657.454 77.1756 592.726 83.2304C530.145 92.2967 492.302 76.7499 504.85 51.5692C517.081 31.7189 567.696 10.1734 620.276 1.60182Z" fill="url(#paint1_linear_1809_10507)"/>
<defs>
<linearGradient id="paint0_linear_1809_10507" x1="-5811.98" y1="-510.813" x2="-6780.88" y2="-510.813" gradientUnits="userSpaceOnUse">
<stop stop-color="#D10F5C"/>
<stop offset="1" stop-color="#E61D6C"/>
</linearGradient>
<linearGradient id="paint1_linear_1809_10507" x1="-5686.12" y1="-636.754" x2="-7186.12" y2="-636.754" gradientUnits="userSpaceOnUse">
<stop stop-color="#1464C0"/>
<stop offset="1" stop-color="#14ADFF"/>
</linearGradient>
</defs>
</svg>
